<svg xmlns="http://www.w3.org/2000/svg" xmlns:xlink="http://www.w3.org/1999/xlink" viewBox="0 0 730.46 281.56"><defs><style>.cls-1{fill:#fff;}.cls-2{mask:url(#mask);}.cls-3{fill:url(#linear-gradient);}.cls-4{fill:#333;}</style><mask id="mask" x="0" y="0" width="281.56" height="281.56" maskUnits="userSpaceOnUse"><g transform="translate(-114.76 -339.21)"><path class="cls-1" d="M259.49,516.25c2.16-2.07,2.22-6,.24-8.95h-8.34c-2.09,3-2,5.5.26,8.47a10.5,10.5,0,0,1,2.67,6.27c3.07-2.5,3.64-5.64,3.45-9h0v0C259.19,513.58,259.26,514.94,259.49,516.25Z"/><path class="cls-1" d="M264,507.3h-4c4,1.7,6,7.29,4.32,11.91a11.23,11.23,0,0,1-1.68,3c-2.6,3.31-7.37,7.54-7.14,12.51-4.76-3-4.89-7.86-4.91-13.17-1.21.46-1.46,1.51-1.86,2.46-4.12-6-3.55-14,2.37-16.74H247a24.34,24.34,0,0,0-6,15.79c.07,4.74,1.69,8.17,3.5,12a46.55,46.55,0,0,0,11,14.79,46.55,46.55,0,0,0,11-14.79c1.81-3.82,3.44-7.25,3.5-12A24.34,24.34,0,0,0,264,507.3Z"/><path class="cls-1" d="M233.44,487.09a124.25,124.25,0,0,1-3.17-19c-9.92,15-9.51,26.64-8.47,32a1.08,1.08,0,0,0,2,.27c2.39-4.72,7.16-7.26,10.86-8.58C234.24,490.27,233.82,488.68,233.44,487.09Z"/><path class="cls-1" d="M280.82,468.12a123.91,123.91,0,0,1-3.18,19c-.38,1.59-.79,3.18-1.24,4.76,3.7,1.32,8.47,3.86,10.87,8.58a1.08,1.08,0,0,0,2-.27C290.32,494.76,290.74,483.12,280.82,468.12Z"/><path class="cls-1" d="M239.76,499.3c.73,2,1.45,3.84,2.11,5.42h27.34c.66-1.58,1.38-3.39,2.12-5.42Z"/><path class="cls-1" d="M255.52,445.75a11.16,11.16,0,1,0,11.15,11.15A11.17,11.17,0,0,0,255.52,445.75Zm0,20.33a9.18,9.18,0,1,1,9.17-9.18A9.18,9.18,0,0,1,255.52,466.08Z"/><path class="cls-1" d="M271.37,431.69a87.44,87.44,0,0,0-15.83-21.59,87.69,87.69,0,0,0-15.83,21.59Z"/><path class="cls-1" d="M272.62,434.27H238.47a63.65,63.65,0,0,0-5.71,21c-1.15,13.16,2.1,26.75,3.16,31.19.9,3.77,1.92,7.19,2.93,10.22h33.38c1-3,2-6.45,2.94-10.22,1.06-4.44,4.3-18,3.15-31.19A63.89,63.89,0,0,0,272.62,434.27ZM255.52,469a12.11,12.11,0,1,1,12.1-12.11A12.11,12.11,0,0,1,255.52,469Z"/><polygon class="cls-1" points="253.82 366.49 226 354.8 226 387.25 253.82 401.12 253.82 366.49"/><polygon class="cls-1" points="257.26 401.12 285.09 387.25 285.09 354.8 257.26 366.49 257.26 401.12"/><polygon class="cls-1" points="282.6 352.11 255.54 339.21 228.48 352.11 255.54 363.48 282.6 352.11"/><polygon class="cls-1" points="226 606.9 253.82 620.77 253.82 586.14 226 574.45 226 606.9"/><polygon class="cls-1" points="257.26 620.77 285.09 606.9 285.09 574.45 257.26 586.14 257.26 620.77"/><polygon class="cls-1" points="255.54 558.86 228.48 571.76 255.54 583.13 282.6 571.76 255.54 558.86"/><polygon class="cls-1" points="321.11 552.41 348.93 566.28 348.93 531.66 321.11 519.97 321.11 552.41"/><polygon class="cls-1" points="350.65 504.37 323.6 517.27 350.65 528.65 377.71 517.27 350.65 504.37"/><polygon class="cls-1" points="352.38 531.66 352.38 566.28 380.2 552.41 380.2 519.97 352.38 531.66"/><polygon class="cls-1" points="130.88 552.41 158.71 566.28 158.71 531.66 130.88 519.97 130.88 552.41"/><polygon class="cls-1" points="162.15 566.28 189.98 552.41 189.98 519.97 162.15 531.66 162.15 566.28"/><polygon class="cls-1" points="160.43 504.37 133.37 517.27 160.43 528.65 187.49 517.27 160.43 504.37"/><polygon class="cls-1" points="158.71 421.8 130.88 410.11 130.88 442.55 158.71 456.42 158.71 421.8"/><polygon class="cls-1" points="162.15 456.42 189.98 442.55 189.98 410.11 162.15 421.8 162.15 456.42"/><polygon class="cls-1" points="187.49 407.41 160.43 394.51 133.37 407.41 160.43 418.79 187.49 407.41"/><polygon class="cls-1" points="352.38 456.42 380.2 442.55 380.2 410.11 352.38 421.8 352.38 456.42"/><polygon class="cls-1" points="348.93 421.8 321.11 410.11 321.11 442.55 348.93 456.42 348.93 421.8"/><polygon class="cls-1" points="377.71 407.41 350.65 394.51 323.6 407.41 350.65 418.79 377.71 407.41"/><polygon class="cls-1" points="222.55 388.39 192.26 405.87 193.42 406.43 193.42 407.74 223.99 390.1 222.55 389.38 222.55 388.39"/><polygon class="cls-1" points="288.53 389.38 287.1 390.1 317.66 407.74 317.66 406.43 318.82 405.87 288.53 388.39 288.53 389.38"/><polygon class="cls-1" points="159.33 501.08 160.43 500.56 161.53 501.08 161.53 460.59 160.43 461.13 159.33 460.58 159.33 501.08"/><polygon class="cls-1" points="193.42 554.55 192.38 555.06 222.55 572.48 222.55 570.77 223.33 570.4 193.42 553.13 193.42 554.55"/><polygon class="cls-1" points="349.56 501.08 350.65 500.56 351.75 501.08 351.75 460.58 350.65 461.13 349.56 460.59 349.56 501.08"/><polygon class="cls-1" points="317.66 553.13 287.75 570.4 288.53 570.77 288.53 572.48 318.7 555.06 317.66 554.55 317.66 553.13"/></g></mask><linearGradient id="linear-gradient" y1="281.56" x2="281.56" gradientUnits="userSpaceOnUse"><stop offset="0.28" stop-color="#1cc5f3"/><stop offset="0.49" stop-color="#bf2cb5"/><stop offset="0.72" stop-color="#ee952a"/></linearGradient></defs><g id="Design"><g class="cls-2"><rect class="cls-3" width="281.56" height="281.56"/></g></g><g id="Name"><path class="cls-4" d="M418.35,407.89h49.27L417.36,479h52.35v7.24H404.3q2.74-3.94,6.81-9.82t8.78-12.67q4.71-6.81,9.71-14.05t9.71-14q4.71-6.75,8.78-12.46t6.8-9.43H416.26a11.2,11.2,0,0,1-5.87-1.43,5,5,0,0,1-2.36-4.61v-3.84H415v1.43a2.24,2.24,0,0,0,.77,2A5.12,5.12,0,0,0,418.35,407.89Z" transform="translate(-114.76 -339.21)"/><path class="cls-4" d="M483.86,486.24V407.89h49.38v6.8H491.32v28.65h37.53v7H491.32v28.86h43.46v7Z" transform="translate(-114.76 -339.21)"/><path class="cls-4" d="M550.91,486.24V407.89h19a33.39,33.39,0,0,1,9.54,1.37,23.93,23.93,0,0,1,8.18,4.23,21.08,21.08,0,0,1,5.71,7.13,22.64,22.64,0,0,1,2.14,10.2,27.59,27.59,0,0,1-3,12.52,19.8,19.8,0,0,1-9.76,9.1c.65,1.1,1.53,2.57,2.63,4.39s2.3,3.83,3.62,6l4.12,6.75q2.13,3.51,4.11,6.7l3.62,5.81q1.65,2.64,2.64,4.17h-9.11c-.59-.88-1.36-2.08-2.31-3.62s-2-3.25-3.18-5.16-2.41-3.91-3.73-6-2.6-4.21-3.84-6.26-2.43-4-3.57-5.81l-2.91-4.72a11.43,11.43,0,0,1-2.3.22H558.37v31.38Zm7.46-38.52H570a19.59,19.59,0,0,0,8.78-1.75,16.08,16.08,0,0,0,5.54-4.34,15.73,15.73,0,0,0,2.85-5.48,19.62,19.62,0,0,0,.82-5.33,15.35,15.35,0,0,0-1.15-5.81,15.57,15.57,0,0,0-3.35-5.1,16.21,16.21,0,0,0-5.59-3.63,20.82,20.82,0,0,0-7.79-1.37H558.37Z" transform="translate(-114.76 -339.21)"/><path class="cls-4" d="M610.17,447.18a38.9,38.9,0,0,1,3.13-15.53,40.44,40.44,0,0,1,21.29-21.46A38.43,38.43,0,0,1,650.12,407a38.84,38.84,0,0,1,15.58,3.18,40.59,40.59,0,0,1,12.78,8.67,41.83,41.83,0,0,1,8.62,12.79,39.49,39.49,0,0,1,0,31.05,41.08,41.08,0,0,1-8.62,12.73A40,40,0,0,1,665.7,484a39.32,39.32,0,0,1-15.58,3.13A38.9,38.9,0,0,1,634.59,484,39.9,39.9,0,0,1,613.3,462.7,38.89,38.89,0,0,1,610.17,447.18Zm7.46,0A31.94,31.94,0,0,0,620.21,460a33.64,33.64,0,0,0,7,10.43,32.55,32.55,0,0,0,10.32,7A31.24,31.24,0,0,0,650.12,480a31.65,31.65,0,0,0,12.67-2.58A32.78,32.78,0,0,0,680.24,460a33,33,0,0,0,0-25.57,34,34,0,0,0-7-10.48,32.76,32.76,0,0,0-10.43-7.08,31.83,31.83,0,0,0-12.67-2.58,31.32,31.32,0,0,0-12.68,2.58,32.94,32.94,0,0,0-17.28,17.56A32.44,32.44,0,0,0,617.63,447.18Z" transform="translate(-114.76 -339.21)"/><path class="cls-4" d="M469.39,578.3a21.81,21.81,0,0,1-3.52,2.05,36.83,36.83,0,0,1-5.32,2.06,54.54,54.54,0,0,1-6.79,1.58,47.8,47.8,0,0,1-7.95.63,39.65,39.65,0,0,1-16.05-3.11,35.81,35.81,0,0,1-19.64-20.58,41.15,41.15,0,0,1-2.63-14.74,40,40,0,0,1,3.1-15.9,38.17,38.17,0,0,1,21.06-20.74A40.19,40.19,0,0,1,447,506.6a47.07,47.07,0,0,1,6.21.42,48.25,48.25,0,0,1,5.95,1.16,29.68,29.68,0,0,1,4.95,1.74,13.28,13.28,0,0,1,3.31,2.05c-.56.84-1,1.55-1.31,2.11s-.65,1.14-1,1.73-.74,1.29-1.16,2.06-1,1.79-1.68,3a13.34,13.34,0,0,0-3.21-1.58,32.92,32.92,0,0,0-3.85-1.05,38.78,38.78,0,0,0-4.05-.63,37.12,37.12,0,0,0-3.74-.21,28.12,28.12,0,0,0-11.32,2.26,28.23,28.23,0,0,0-14.95,15,26.81,26.81,0,0,0-.1,20.85,29.28,29.28,0,0,0,5.68,8.84,27.21,27.21,0,0,0,8.74,6.22,26.86,26.86,0,0,0,11.21,2.31,31.22,31.22,0,0,0,6.32-.63,46.3,46.3,0,0,0,5.53-1.47,31.31,31.31,0,0,0,4.1-1.69,6.85,6.85,0,0,0,1.95-1.26Z" transform="translate(-114.76 -339.21)"/><path class="cls-4" d="M472.45,545.66a37.54,37.54,0,0,1,3.05-15,39.78,39.78,0,0,1,20.74-20.95,38.38,38.38,0,0,1,30.27,0,39.52,39.52,0,0,1,12.42,8.47,40.66,40.66,0,0,1,8.43,12.48,38.23,38.23,0,0,1,0,30.16,40,40,0,0,1-8.43,12.37,39.08,39.08,0,0,1-12.42,8.37,39,39,0,0,1-30.27,0,39.43,39.43,0,0,1-20.74-20.74A37.64,37.64,0,0,1,472.45,545.66Zm11.47.11A27.89,27.89,0,0,0,492,565.56a28.58,28.58,0,0,0,8.84,6,26.41,26.41,0,0,0,10.74,2.21,26,26,0,0,0,10.69-2.21,28.06,28.06,0,0,0,16.79-25.9,27.89,27.89,0,0,0-8.1-19.79,28.71,28.71,0,0,0-8.79-6,26.07,26.07,0,0,0-10.69-2.21,26.41,26.41,0,0,0-10.74,2.21,27.78,27.78,0,0,0-8.79,6,28.37,28.37,0,0,0-8.06,19.9Z" transform="translate(-114.76 -339.21)"/><path class="cls-4" d="M563.83,507.44H583q11.58,0,19.58,3.48a36.48,36.48,0,0,1,13,9.11,35.14,35.14,0,0,1,7.27,12.63,45.42,45.42,0,0,1,2.26,14A37.73,37.73,0,0,1,622.06,562a34.92,34.92,0,0,1-8.32,11.74,36.72,36.72,0,0,1-12.21,7.43,42.05,42.05,0,0,1-14.74,2.58h-23Zm21.27,65.39A34.76,34.76,0,0,0,596.42,571a26.26,26.26,0,0,0,9.05-5.22,23.49,23.49,0,0,0,6-8.42,28.82,28.82,0,0,0,2.16-11.53,28.13,28.13,0,0,0-2.42-12.1,25.75,25.75,0,0,0-6.32-8.58,25.12,25.12,0,0,0-8.79-5.06,31.19,31.19,0,0,0-10-1.63H575.31v54.33Z" transform="translate(-114.76 -339.21)"/><path class="cls-4" d="M638.69,583.78V507.44h50.12v10.43H650.27v22.32h34.32v10.63H650.27v22.32h40v10.64Z" transform="translate(-114.76 -339.21)"/><path class="cls-4" d="M774.17,407v181.5q-3.18-3.84-7.84-9.16T756.23,568q-5.43-6-11.19-12.34T733.9,543.3q-5.39-6-9.82-11.25t-7.3-9q-.33-.43-1-1.26t-1.2-1.59l.33,3.51v61.23h-7.47v-82q3.18,4.06,7.79,9.32t10,11.2q5.43,5.92,11.13,12.18t11,12.13q5.32,5.87,9.93,11.08t7.58,9a5.34,5.34,0,0,0,.87,1.37c.44.55.84,1.08,1.21,1.6l-.33-3.63V407Z" transform="translate(-114.76 -339.21)"/><path class="cls-4" d="M766.68,573.28V404h44.89v6.92H774.14V440.5h33v7h-33V573.28Z" transform="translate(-114.76 -339.21)"/><path class="cls-4" d="M845.22,440.44v7.13H824.37V588.42h-7.58V447.57H768.68v-7.13Z" transform="translate(-114.76 -339.21)"/></g></svg>